<?xml version="1.0" encoding="UTF-8"?>
<svg xmlns="http://www.w3.org/2000/svg" viewBox="0 0 50 50">
  <path fill='hsla(200, 20%, 20%, 1)' d="m25,3.06C12.57,3.06,2.5,13.13,2.5,25.56c0,9.88,6.37,18.28,15.23,21.3l.16.05c1.13.21,1.54-.48,1.54-1.08,0-.53-.02-1.95-.03-3.82-6.26,1.36-7.58-3.02-7.58-3.02-.43-1.39-1.32-2.53-2.48-3.28h-.02c-2.04-1.41.16-1.38.16-1.38,1.48.21,2.72,1.08,3.43,2.3v.02c.84,1.49,2.41,2.49,4.22,2.49.86,0,1.67-.23,2.37-.63h-.02c.11-1.17.63-2.22,1.42-3h0c-5-.56-10.25-2.5-10.25-11.12,0-.04,0-.09,0-.13,0-2.28.88-4.36,2.32-5.91h0c-.3-.81-.48-1.75-.48-2.73,0-1.17.25-2.27.7-3.27l-.02.05s1.88-.6,6.19,2.31c1.69-.48,3.62-.76,5.63-.76s3.94.28,5.78.8l-.15-.04c4.28-2.91,6.16-2.31,6.16-2.31.43.96.68,2.09.68,3.27,0,.96-.17,1.89-.47,2.75l.02-.06c1.43,1.55,2.31,3.63,2.31,5.91,0,.05,0,.09,0,.14h0c0,8.64-5.26,10.54-10.27,11.09.95.97,1.53,2.3,1.53,3.76,0,.14,0,.28-.02.42v-.02c0,3.01-.03,5.43-.03,6.16,0,.59.39,1.29,1.55,1.07,9.05-3.04,15.44-11.45,15.44-21.35,0-12.41-10.06-22.47-22.47-22.47h-.03,0Z"/>
</svg>